<svg width="33" height="33" viewBox="0 0 33 33" fill="none" xmlns="http://www.w3.org/2000/svg">
<path fill-rule="evenodd" clip-rule="evenodd" d="M20.335 7.56854C20.335 7.01626 20.7827 6.56854 21.335 6.56854H22.6683C24.6768 6.56854 26.1507 6.87841 26.9683 7.96854C27.3657 8.49846 27.5251 9.11056 27.5981 9.69451C27.6684 10.2568 27.6683 10.8931 27.6683 11.5267V14.2771C27.6683 14.9107 27.6684 15.5469 27.5981 16.1092C27.5251 16.6932 27.3657 17.3053 26.9683 17.8352C26.1507 18.9253 24.6768 19.2352 22.6683 19.2352H17.335C15.4288 19.2352 14.8685 19.6686 14.6576 19.9738C14.5318 20.1557 14.4404 20.4129 14.389 20.8059C14.3366 21.2079 14.335 21.6659 14.335 22.2352C14.335 22.7875 13.8872 23.2352 13.335 23.2352C12.7827 23.2352 12.335 22.7875 12.335 22.2352L12.335 22.201C12.3349 21.6726 12.3349 21.0908 12.4059 20.547C12.4796 19.9825 12.6381 19.378 13.0124 18.8366C13.8014 17.6951 15.2411 17.2352 17.335 17.2352H22.6683C24.6598 17.2352 25.1859 16.8784 25.3683 16.6352C25.4709 16.4985 25.5615 16.2772 25.6135 15.8612C25.6667 15.4359 25.6683 14.9211 25.6683 14.2352V11.5685C25.6683 10.8826 25.6667 10.3679 25.6135 9.94258C25.5615 9.52652 25.4709 9.3053 25.3683 9.16854C25.1859 8.92534 24.6598 8.56854 22.6683 8.56854H21.335C20.7827 8.56854 20.335 8.12083 20.335 7.56854Z" fill="#1994ED"/>
<path fill-rule="evenodd" clip-rule="evenodd" d="M9.71938 3.25231C9.8555 2.84397 10.2376 2.56854 10.6681 2.56854H16.0014C16.4318 2.56854 16.814 2.84397 16.9501 3.25231C17.8852 6.05758 17.8852 9.0795 16.9501 11.8848C16.814 12.2931 16.4318 12.5685 16.0014 12.5685H10.6681C10.2376 12.5685 9.8555 12.2931 9.71938 11.8848C8.78429 9.0795 8.78429 6.05758 9.71938 3.25231ZM11.4118 4.56854C10.8868 6.53595 10.8868 8.60113 11.4118 10.5685H15.2577C15.7826 8.60113 15.7826 6.53595 15.2577 4.56854H11.4118Z" fill="#1994ED"/>
<path fill-rule="evenodd" clip-rule="evenodd" d="M5.62785 3.86144C6.5482 2.94109 7.84748 2.56854 9.33496 2.56854H10.6683C11.0149 2.56854 11.3367 2.74799 11.5189 3.04281C11.7012 3.33763 11.7177 3.70577 11.5627 4.01576C10.3702 6.4009 10.3702 8.73619 11.5627 11.1213C11.7177 11.4313 11.7012 11.7995 11.5189 12.0943C11.3367 12.3891 11.0149 12.5685 10.6683 12.5685H9.33496C7.84748 12.5685 6.5482 12.196 5.62785 11.2757C4.70751 10.3553 4.33496 9.05602 4.33496 7.56854C4.33496 6.08106 4.70751 4.78178 5.62785 3.86144ZM7.04207 5.27565C6.62908 5.68864 6.33496 6.38935 6.33496 7.56854C6.33496 8.74773 6.62908 9.44845 7.04207 9.86144C7.43532 10.2547 8.08947 10.5402 9.16919 10.5665C8.50133 8.57295 8.50133 6.56414 9.16919 4.57054C8.08947 4.59692 7.43532 4.8824 7.04207 5.27565Z" fill="#1994ED"/>
<path fill-rule="evenodd" clip-rule="evenodd" d="M15.1508 3.04281C15.333 2.74799 15.6549 2.56854 16.0015 2.56854H17.3348C18.8223 2.56854 20.1216 2.94109 21.0419 3.86144C21.9623 4.78178 22.3348 6.08106 22.3348 7.56854C22.3348 9.05602 21.9623 10.3553 21.0419 11.2757C20.1216 12.196 18.8223 12.5685 17.3348 12.5685H16.0015C15.6549 12.5685 15.333 12.3891 15.1508 12.0943C14.9686 11.7995 14.952 11.4313 15.107 11.1213C16.2996 8.73619 16.2996 6.4009 15.107 4.01576C14.952 3.70577 14.9686 3.33763 15.1508 3.04281ZM17.5006 4.57054C18.1684 6.56414 18.1684 8.57295 17.5006 10.5665C18.5803 10.5402 19.2344 10.2547 19.6277 9.86144C20.0407 9.44845 20.3348 8.74773 20.3348 7.56854C20.3348 6.38935 20.0407 5.68864 19.6277 5.27565C19.2344 4.8824 18.5803 4.59692 17.5006 4.57054Z" fill="#1994ED"/>
<path fill-rule="evenodd" clip-rule="evenodd" d="M10.0606 22.4707C10.5407 21.6707 11.4246 21.2352 12.6681 21.2352H14.0015C15.245 21.2352 16.129 21.6707 16.609 22.4707C17.0045 23.13 17.0024 23.8723 17.0016 24.1946C17.0015 24.209 17.0015 24.2226 17.0015 24.2352V28.2352C17.0015 28.2479 17.0015 28.2614 17.0016 28.2758C17.0024 28.5981 17.0045 29.3405 16.609 29.9997C16.129 30.7997 15.245 31.2352 14.0015 31.2352H12.6681C11.4246 31.2352 10.5407 30.7997 10.0606 29.9997C9.66509 29.3405 9.66716 28.5981 9.66806 28.2758C9.6681 28.2614 9.66814 28.2479 9.66814 28.2352V24.2352C9.66814 24.2226 9.6681 24.209 9.66806 24.1946C9.66716 23.8723 9.66509 23.13 10.0606 22.4707ZM11.7756 23.4997C11.6888 23.6444 11.6681 23.865 11.6681 24.2352V28.2352C11.6681 28.6054 11.6888 28.8261 11.7756 28.9707C11.8032 29.0167 11.8456 29.0673 11.9457 29.1155C12.0575 29.1693 12.2753 29.2352 12.6681 29.2352H14.0015C14.3943 29.2352 14.6121 29.1693 14.7239 29.1155C14.824 29.0673 14.8664 29.0167 14.894 28.9707C14.9808 28.8261 15.0015 28.6054 15.0015 28.2352V24.2352C15.0015 23.865 14.9808 23.6444 14.894 23.4997C14.8664 23.4538 14.824 23.4032 14.7239 23.355C14.6121 23.3011 14.3943 23.2352 14.0015 23.2352H12.6681C12.2753 23.2352 12.0575 23.3011 11.9457 23.355C11.8456 23.4032 11.8032 23.4538 11.7756 23.4997Z" fill="#1994ED"/>
</svg>
