<svg width="80" height="80" viewBox="0 0 80 80" fill="none" xmlns="http://www.w3.org/2000/svg">
<path d="M38.45 50.2833C38.1667 50.2833 37.9 50.2333 37.6167 50.1333C36.7 49.7833 36.1 48.9333 36.1 47.95V42.45H34.4667C33.5333 42.45 32.7167 41.9167 32.3333 41.0833C31.95 40.2333 32.1 39.2833 32.7167 38.5833L39.8167 30.5167C40.4667 29.7833 41.4667 29.5333 42.3833 29.8833C43.3 30.2333 43.9 31.0833 43.9 32.0667V37.5667H45.55C46.4833 37.5667 47.3 38.1 47.6833 38.9333C48.0667 39.7833 47.9167 40.7333 47.3 41.4333L40.2 49.5C39.7333 50 39.1 50.2833 38.45 50.2833ZM34.8333 39.95H37.35C38.0333 39.95 38.6 40.5167 38.6 41.2V47.5L45.1667 40.05H42.65C41.9667 40.05 41.4 39.4833 41.4 38.8V32.5L34.8333 39.95Z" fill="#0C6BDA"/>
<path d="M39.95 57.9167C30.0833 57.9167 22.0333 49.8833 22.0333 40C22.0333 30.1167 30.0833 22.0833 39.95 22.0833C49.8167 22.0833 57.8667 30.1167 57.8667 40C57.8667 49.8833 49.8333 57.9167 39.95 57.9167ZM39.95 24.5833C31.45 24.5833 24.5333 31.5 24.5333 40C24.5333 48.5 31.45 55.4167 39.95 55.4167C48.45 55.4167 55.3667 48.5 55.3667 40C55.3667 31.5 48.45 24.5833 39.95 24.5833Z" fill="#0C6BDA"/>
<rect x="0.5" y="0.5" width="79" height="79" rx="39.5" stroke="#C2C2C2"/>
</svg>
