<svg width="372" height="278" viewBox="0 0 372 278" fill="none" xmlns="http://www.w3.org/2000/svg">
<path d="M328.368 196.25C330.389 197.516 332.484 198.659 334.642 199.672C334.981 199.672 334.495 200.33 341.272 188.093C341.319 188.008 341.33 187.908 341.303 187.814C341.276 187.72 341.212 187.641 341.127 187.594C334.528 183.94 334.963 184.126 334.752 184.186C334.54 184.247 334.947 183.599 328.223 195.749C328.176 195.835 328.165 195.936 328.192 196.03C328.22 196.124 328.283 196.203 328.368 196.25V196.25ZM334.996 185.04L340.45 188.06L334.499 198.805L329.045 195.785L334.996 185.04Z" fill="#121212"/>
<path d="M320.546 191.907C322.564 193.178 324.66 194.321 326.822 195.33C327.158 195.33 326.673 195.99 333.45 183.752C333.497 183.667 333.508 183.566 333.481 183.473C333.455 183.379 333.392 183.3 333.307 183.253L327.209 179.876C327.167 179.852 327.121 179.837 327.073 179.832C327.025 179.826 326.976 179.83 326.93 179.843C326.884 179.857 326.84 179.879 326.803 179.909C326.765 179.939 326.733 179.976 326.71 180.019L320.401 191.407C320.354 191.493 320.343 191.593 320.37 191.687C320.398 191.781 320.461 191.86 320.546 191.907V191.907Z" fill="#121212"/>
<path d="M312.723 187.576C314.742 188.846 316.838 189.989 318.999 190.998C319.336 190.998 318.876 191.672 325.627 179.422C325.674 179.336 325.686 179.235 325.659 179.142C325.632 179.048 325.569 178.968 325.484 178.92C318.844 175.244 319.318 175.454 319.107 175.51C318.895 175.567 319.293 174.953 312.58 187.075C312.557 187.118 312.542 187.164 312.536 187.212C312.531 187.26 312.535 187.309 312.548 187.356C312.561 187.402 312.583 187.446 312.614 187.483C312.644 187.521 312.681 187.553 312.723 187.576V187.576ZM319.351 176.366L324.805 179.386L318.854 190.129L313.403 187.111L319.351 176.366Z" fill="#121212"/>
<path d="M357.251 153.622C357.248 153.524 357.207 153.431 357.136 153.364C357.066 153.296 356.971 153.26 356.873 153.262L285.928 154.796C279.323 148.826 271.637 144.175 263.283 141.094C263.193 141.068 263.097 141.077 263.013 141.119C262.929 141.161 262.865 141.234 262.833 141.322C262.8 141.41 262.803 141.507 262.839 141.593C262.875 141.679 262.943 141.749 263.029 141.787C274.803 146.122 285.184 153.566 293.068 163.327C300.951 173.088 306.044 184.802 307.804 197.226C309.564 209.649 307.927 222.317 303.065 233.884C298.204 245.451 290.3 255.486 280.193 262.921C270.087 270.357 258.155 274.916 245.665 276.115C233.175 277.314 220.594 275.107 209.257 269.729C197.921 264.351 188.253 256.003 181.28 245.571C174.308 235.14 170.291 223.014 169.656 210.483C169.654 210.435 169.642 210.388 169.621 210.344C169.6 210.3 169.571 210.261 169.535 210.228C169.499 210.196 169.458 210.171 169.412 210.155C169.366 210.138 169.318 210.131 169.27 210.134C169.221 210.136 169.174 210.148 169.13 210.169C169.087 210.19 169.047 210.219 169.015 210.255C168.982 210.291 168.957 210.333 168.941 210.378C168.925 210.424 168.918 210.472 168.92 210.52C169.423 220.46 172.035 230.18 176.581 239.033C181.128 247.887 187.505 255.672 195.291 261.872C203.076 268.072 212.091 272.546 221.738 274.995C231.385 277.445 241.442 277.815 251.242 276.08C261.042 274.345 270.362 270.546 278.582 264.934C286.801 259.323 293.733 252.027 298.918 243.531C304.102 235.035 307.42 225.534 308.652 215.658C309.883 205.781 309 195.756 306.061 186.247C336.966 203.364 335.773 202.759 335.971 202.759C336.284 202.759 335.58 203.865 344.606 187.559C344.653 187.473 344.664 187.373 344.637 187.279C344.611 187.185 344.548 187.106 344.463 187.058L317.299 172.014C359.892 171.094 357.333 171.231 357.521 171.036C357.709 170.84 357.625 171.782 357.251 153.622ZM300.045 172.39L308.337 172.212L303.886 180.248C302.768 177.552 301.486 174.928 300.045 172.39ZM304.242 181.127L309.189 172.193L310.618 172.163L304.821 182.63C304.634 182.125 304.45 181.626 304.242 181.127V181.127ZM311.469 172.144C311.825 172.144 311.134 171.815 316.983 175.054L311.033 185.797L305.581 182.779L311.469 172.144ZM343.782 187.53L335.824 201.894L305.732 185.228C305.524 184.597 305.308 183.97 305.082 183.344L310.999 186.621C311.085 186.668 311.186 186.679 311.28 186.652C311.374 186.625 311.453 186.562 311.5 186.476L317.806 175.09C317.829 175.047 317.844 175.001 317.85 174.953C317.855 174.905 317.851 174.856 317.838 174.81C317.825 174.763 317.802 174.719 317.772 174.682C317.742 174.644 317.705 174.612 317.663 174.589L313.182 172.106L315.832 172.05L343.782 187.53ZM299.626 171.664C296.133 165.679 291.78 160.238 286.707 155.517L356.519 154.007L356.873 170.427L299.626 171.664Z" fill="#121212"/>
<path d="M354.256 155.391C347.139 155.485 347.219 155.458 347.031 155.654C346.843 155.849 346.931 155.241 347.211 168.931C347.213 169.028 347.253 169.119 347.322 169.187C347.39 169.254 347.483 169.292 347.579 169.292L354.554 169.143C354.651 169.14 354.744 169.099 354.812 169.028C354.879 168.957 354.916 168.863 354.914 168.765L354.632 155.752C354.627 155.655 354.585 155.564 354.515 155.497C354.446 155.43 354.353 155.392 354.256 155.391V155.391Z" fill="#121212"/>
<path d="M345.581 155.687C345.385 155.491 345.569 155.571 338.35 155.734C338.301 155.735 338.254 155.746 338.209 155.765C338.165 155.784 338.125 155.812 338.092 155.847C338.058 155.882 338.032 155.923 338.014 155.968C337.997 156.013 337.988 156.061 337.989 156.11L338.271 169.125C338.273 169.221 338.313 169.313 338.382 169.38C338.451 169.448 338.543 169.485 338.639 169.485L345.614 169.335C345.662 169.334 345.71 169.323 345.754 169.304C345.798 169.284 345.838 169.256 345.872 169.221C345.905 169.186 345.932 169.145 345.949 169.1C345.967 169.055 345.975 169.007 345.974 168.959C345.692 155.26 345.776 155.871 345.581 155.687Z" fill="#121212"/>
<path d="M336.641 155.879C336.445 155.683 336.713 155.781 329.41 155.928C329.362 155.929 329.314 155.939 329.27 155.959C329.225 155.978 329.185 156.006 329.152 156.041C329.118 156.076 329.092 156.117 329.075 156.162C329.057 156.207 329.049 156.255 329.05 156.304L329.332 169.317C329.334 169.413 329.373 169.505 329.442 169.572C329.511 169.64 329.603 169.677 329.7 169.677L336.676 169.529C336.773 169.526 336.866 169.485 336.933 169.415C337.001 169.344 337.038 169.25 337.036 169.153C336.748 155.47 336.837 156.067 336.641 155.879ZM330.06 168.935L329.795 156.656L336.026 156.521L336.292 168.8L330.06 168.935Z" fill="#121212"/>
<path d="M327.439 155.971C320.324 156.124 320.406 156.036 320.214 156.233C320.022 156.431 320.083 155.805 320.392 169.513C320.395 169.609 320.434 169.7 320.503 169.768C320.572 169.835 320.664 169.873 320.76 169.873L327.737 169.72C327.834 169.718 327.926 169.678 327.994 169.608C328.061 169.538 328.098 169.444 328.097 169.347L327.815 156.331C327.807 156.235 327.765 156.146 327.695 156.08C327.626 156.013 327.535 155.974 327.439 155.971V155.971ZM321.122 169.127L320.856 156.85L327.087 156.715L327.353 168.992L321.122 169.127Z" fill="#121212"/>
<path d="M318.761 156.265C318.565 156.069 318.761 156.151 311.532 156.314C311.434 156.316 311.342 156.357 311.274 156.427C311.207 156.498 311.17 156.592 311.172 156.689L311.453 169.705C311.455 169.801 311.495 169.893 311.564 169.96C311.633 170.027 311.725 170.065 311.821 170.065L318.796 169.914C318.894 169.912 318.987 169.871 319.055 169.801C319.122 169.731 319.16 169.636 319.158 169.538C318.874 155.856 318.958 156.454 318.761 156.265ZM312.182 169.321L311.915 157.042L318.148 156.909L318.412 169.186L312.182 169.321Z" fill="#121212"/>
<path d="M235.254 180.958C235.058 180.958 235.021 180.904 221.998 176.065C221.906 176.031 221.832 175.962 221.791 175.873C221.75 175.784 221.746 175.683 221.78 175.591C221.814 175.499 221.883 175.425 221.972 175.384C222.061 175.343 222.163 175.34 222.254 175.374L235.383 180.25C235.461 180.282 235.526 180.339 235.567 180.414C235.607 180.488 235.621 180.573 235.606 180.656C235.591 180.74 235.548 180.815 235.484 180.87C235.419 180.925 235.338 180.956 235.254 180.958V180.958Z" fill="#121212"/>
<path d="M180.853 159.996C115.731 135.856 120.116 137.375 119.903 137.484C119.689 137.594 119.951 137.04 117.033 144.899C116.799 144.439 116.438 144.054 115.993 143.791L95.8097 131.77C95.2118 131.416 94.5008 131.304 93.8228 131.457L65.0652 135.235C65.0983 135.142 65.0949 135.04 65.0557 134.949C65.0165 134.858 64.9443 134.786 64.8538 134.746L63.5814 134.272L111.718 92.135C112.35 92.7156 113.181 93.0319 114.039 93.019C114.898 93.0061 115.718 92.6649 116.333 92.0656C116.947 91.4663 117.309 90.6543 117.343 89.7966C117.378 88.939 117.082 88.1007 116.518 87.4541C115.953 86.8076 115.162 86.4019 114.308 86.3204C113.453 86.2388 112.6 86.4877 111.923 87.0159C111.247 87.544 110.798 88.3113 110.67 89.16C110.541 90.0087 110.743 90.8744 111.233 91.5791L62.7926 133.975C60.1382 132.996 59.1066 132.589 58.6681 132.444C58.3608 132.344 58.2159 132.311 58.0809 132.64C57.8851 133.076 57.3997 134.446 55.7319 138.921C55.6983 139.013 55.7022 139.114 55.7429 139.203C55.7836 139.291 55.8578 139.361 55.9492 139.395L56.4111 139.565L5.5945 184.036C4.94484 183.474 4.10461 183.182 3.24653 183.221C2.38846 183.259 1.57773 183.625 0.981018 184.243C0.384302 184.86 0.0469319 185.683 0.0382574 186.542C0.029583 187.401 0.350264 188.231 0.93438 188.861C1.5185 189.49 2.32166 189.872 3.17879 189.928C4.03591 189.984 4.88186 189.709 5.54274 189.161C6.20362 188.612 6.62922 187.831 6.73206 186.978C6.83489 186.126 6.60714 185.266 6.09562 184.576L57.1863 139.859C61.5339 141.472 62.1779 141.76 62.3756 141.76C62.4507 141.759 62.524 141.736 62.5859 141.694C62.6477 141.651 62.6952 141.591 62.7221 141.521L62.7378 141.474L82.0034 163.29C82.4237 163.853 83.0438 164.232 83.7358 164.351L106.858 168.405C107.362 168.494 107.881 168.44 108.355 168.248L105.505 175.922C105.488 175.967 105.48 176.015 105.481 176.064C105.483 176.112 105.494 176.159 105.514 176.204C105.534 176.248 105.563 176.287 105.598 176.32C105.633 176.353 105.675 176.379 105.72 176.395C152.691 193.85 151.33 193.383 151.526 193.383C151.612 193.383 151.696 193.352 151.762 193.297C151.828 193.242 151.872 193.165 151.888 193.08C151.903 192.995 151.888 192.908 151.846 192.833C151.803 192.758 151.736 192.7 151.655 192.67L106.319 175.836C106.319 175.836 109.471 167.788 113.417 157.155C160.493 174.638 159.855 174.45 160.051 174.45C160.137 174.448 160.219 174.417 160.285 174.362C160.35 174.306 160.394 174.23 160.409 174.146C160.425 174.061 160.41 173.974 160.368 173.899C160.326 173.824 160.26 173.766 160.18 173.735L113.672 156.464C117.442 146.299 120.265 138.283 120.265 138.283L180.589 160.689C180.681 160.724 180.783 160.721 180.873 160.68C180.962 160.64 181.032 160.566 181.067 160.474C181.103 160.382 181.1 160.28 181.059 160.19C181.019 160.101 180.945 160.031 180.853 159.996V159.996ZM62.9394 138.825L60.4553 137.829C60.3783 137.799 60.2936 137.796 60.2146 137.82C60.1356 137.844 60.0669 137.894 60.0194 137.961C59.9719 138.029 59.9484 138.11 59.9525 138.193C59.9567 138.275 59.9883 138.354 60.0423 138.416L62.1955 140.845L62.1681 140.92L56.5501 138.833L58.6309 133.219L64.2489 135.306L64.2352 135.343C62.3247 135.593 61.5848 135.672 61.2716 135.734C61.1867 135.738 61.1056 135.771 61.0421 135.827C60.9786 135.884 60.9366 135.96 60.9232 136.044C60.9098 136.128 60.9259 136.214 60.9687 136.287C61.0115 136.361 61.0784 136.417 61.1581 136.447L63.5071 137.277L62.9394 138.825ZM96.7121 150.463C96.6568 150.673 96.5583 150.87 96.4227 151.04C96.2871 151.211 96.1174 151.351 95.9245 151.452C95.7316 151.553 95.5198 151.613 95.3025 151.628C95.0852 151.642 94.8673 151.612 94.6626 151.537L63.6245 139.091L64.2118 137.51L95.6492 148.568C96.0272 148.699 96.344 148.965 96.5399 149.314C96.7357 149.663 96.7969 150.071 96.7121 150.463Z" fill="#121212"/>
<path d="M288.985 204.135C288.891 203.93 289.558 204.231 276.805 199.496C278.025 196.215 278.021 196.364 277.931 196.158C277.841 195.953 279.608 196.577 251.285 186.15C251.194 186.116 251.092 186.12 251.003 186.16C250.915 186.201 250.846 186.275 250.812 186.367C250.778 186.459 250.781 186.56 250.822 186.649C250.863 186.738 250.937 186.807 251.029 186.841L277.122 196.53L270.389 214.651L238.712 202.886C238.621 202.852 238.519 202.856 238.43 202.897C238.342 202.938 238.273 203.012 238.239 203.104C238.205 203.195 238.208 203.297 238.249 203.385C238.29 203.474 238.364 203.543 238.456 203.577L270.13 215.342L263.175 234.073L173.767 200.878C173.675 200.844 173.573 200.848 173.485 200.888C173.396 200.929 173.327 201.004 173.293 201.095C173.259 201.187 173.263 201.288 173.303 201.377C173.344 201.466 173.418 201.535 173.51 201.569C265.121 235.532 263.189 234.923 263.385 234.923C263.46 234.923 263.534 234.9 263.596 234.857C263.658 234.814 263.705 234.753 263.731 234.682L264.931 231.448C275.768 235.471 276.835 235.915 277.032 235.915C277.108 235.916 277.181 235.893 277.243 235.85C277.305 235.807 277.352 235.747 277.379 235.676C289.778 202.417 289.075 204.347 288.985 204.135Z" fill="#121212"/>
<path d="M236.196 202.747L234.573 202.144C234.482 202.11 234.407 202.041 234.367 201.953C234.326 201.864 234.322 201.762 234.356 201.671C234.39 201.579 234.459 201.505 234.548 201.464C234.637 201.423 234.738 201.419 234.83 201.453L236.453 202.056C236.544 202.09 236.619 202.159 236.659 202.248C236.7 202.337 236.704 202.438 236.67 202.53C236.636 202.622 236.567 202.696 236.478 202.737C236.389 202.778 236.288 202.781 236.196 202.747V202.747Z" fill="#121212"/>
<path d="M232.073 201.217L229.235 200.161C229.149 200.124 229.081 200.054 229.045 199.968C229.008 199.882 229.006 199.785 229.039 199.698C229.071 199.61 229.136 199.538 229.219 199.496C229.303 199.454 229.4 199.446 229.489 199.472L232.329 200.526C232.421 200.56 232.495 200.629 232.536 200.717C232.577 200.806 232.581 200.908 232.547 200.999C232.513 201.091 232.444 201.165 232.355 201.206C232.266 201.247 232.165 201.251 232.073 201.217V201.217Z" fill="#121212"/>
<path d="M228.804 199.969C228.608 199.969 229.879 200.41 188.345 184.969C188.253 184.935 188.179 184.866 188.138 184.777C188.097 184.688 188.093 184.587 188.127 184.495C188.161 184.404 188.23 184.329 188.319 184.289C188.408 184.248 188.509 184.244 188.601 184.278L228.925 199.257C229.006 199.287 229.073 199.344 229.115 199.418C229.158 199.492 229.173 199.579 229.159 199.663C229.145 199.748 229.101 199.824 229.037 199.88C228.972 199.936 228.89 199.968 228.804 199.969Z" fill="#121212"/>
<path d="M263.156 141.44C262.412 139.338 253.545 120.505 250.628 115.198C246.468 107.621 243.051 107.325 239.727 104.203C239.706 104.175 239.688 104.145 239.672 104.115C236.79 103.843 234.002 102.951 231.497 101.499C231.155 101.697 230.79 101.852 230.411 101.961C231.302 103.424 228.896 105.352 226.933 105.647C228.555 105.495 227.86 108.323 225.425 108.748C224.893 108.764 220.694 108.891 218.76 108.926C216.429 114.654 212.78 109.829 212.78 100.871C212.732 98.3042 213.106 95.7469 213.888 93.3015C214.475 91.6572 215.258 90.5786 216.125 90.3652L190.11 92.4989C187.523 92.7116 185.08 93.7794 183.167 95.5339C181.254 97.2883 179.979 99.6297 179.544 102.189C179.108 104.748 179.537 107.379 180.762 109.668C181.987 111.956 183.939 113.772 186.311 114.828L203.578 122.552L201.456 132.902L233.796 148.186L243.107 128.035V140.052L247.218 147.444L236.746 176.198C241.928 179.949 248.11 182.072 254.504 182.293L263.326 155.311C264.799 150.795 264.739 145.919 263.156 141.44V141.44Z" fill="#1994ED"/>
<path d="M371.604 105.166C365.817 105.348 362.466 98.5693 355.445 102.034C351.461 100.731 347.388 99.7209 343.257 99.0117C337.411 98.0377 331.508 97.4492 325.585 97.25C316.892 97.0542 316.669 98.4245 316.594 98.8727C316.52 99.321 316.295 100.699 324.596 103.279C330.274 104.981 336.057 106.307 341.909 107.249C346.056 107.882 350.242 108.225 354.436 108.277C359.514 113.104 367.311 111.076 371.903 105.785C371.953 105.73 371.986 105.662 371.996 105.588C372.007 105.515 371.995 105.44 371.963 105.374C371.931 105.307 371.879 105.252 371.815 105.215C371.751 105.178 371.678 105.161 371.604 105.166V105.166ZM324.82 102.568C318.736 100.678 317.256 99.3973 317.324 98.9824C317.393 98.5674 319.202 97.8255 325.573 97.9782C331.854 98.1947 338.112 98.8488 344.303 99.9357L343.195 106.699C336.977 105.75 330.834 104.37 324.808 102.568H324.82ZM343.925 106.799L345.027 100.067C348.418 100.752 351.77 101.625 355.065 102.68L354.272 107.527C350.811 107.473 347.355 107.228 343.921 106.793L343.925 106.799Z" fill="#121212"/>
<path d="M333.886 33.0538C332.082 26.7106 328.022 21.2451 322.471 17.685C316.919 14.1248 310.259 12.7154 303.741 13.7216C298.453 14.4987 293.641 17.2062 290.232 21.3219C286.822 25.4375 285.058 30.6698 285.278 36.0096L276.426 42.5868C276.368 42.6295 276.325 42.6881 276.3 42.7554C276.275 42.8228 276.27 42.8959 276.287 42.9658C276.303 43.0356 276.339 43.0993 276.391 43.1488C276.443 43.1983 276.508 43.2316 276.579 43.2445L287.498 45.2627C295.819 63.4498 321.219 66.5798 331.299 50.8611C332.958 48.2419 334.046 45.302 334.492 42.2336C334.938 39.1651 334.732 36.037 333.886 33.0538V33.0538ZM330.68 50.4618C320.801 65.8634 295.993 62.4025 288.091 44.7851C287.924 44.4934 288.598 44.7146 277.544 42.6729C286.433 36.0664 285.998 36.5244 286.018 36.174C285.756 30.9811 287.439 25.8769 290.739 21.8589C294.04 17.8408 298.719 15.1977 303.864 14.4458C310.2 13.4704 316.675 14.8415 322.071 18.3016C327.468 21.7618 331.416 27.0729 333.174 33.2378C333.993 36.1227 334.194 39.1479 333.765 42.1159C333.335 45.0838 332.284 47.9277 330.68 50.4618V50.4618Z" fill="#121212"/>
<path d="M307.778 39.8093C309.034 36.0156 314.141 35.2601 315.337 31.5878C315.521 31.0915 315.598 30.5625 315.566 30.0344C315.533 29.5064 315.39 28.991 315.147 28.5213C314.904 28.0515 314.565 27.6376 314.153 27.3061C313.74 26.9746 313.264 26.7328 312.753 26.5961C312.241 26.4594 311.707 26.4308 311.185 26.5121C310.662 26.5935 310.162 26.783 309.717 27.0685C309.271 27.3541 308.89 27.7294 308.598 28.1705C308.306 28.6116 308.109 29.1088 308.02 29.6303C308.011 29.6874 307.99 29.742 307.96 29.7911C307.929 29.8402 307.889 29.8827 307.842 29.9164C307.795 29.95 307.742 29.974 307.685 29.9871C307.629 30.0001 307.57 30.0019 307.513 29.9924C307.456 29.9829 307.402 29.9623 307.353 29.9316C307.304 29.901 307.261 29.861 307.227 29.8139C307.194 29.7669 307.17 29.7136 307.157 29.6572C307.144 29.6009 307.142 29.5425 307.151 29.4854C307.26 28.8437 307.502 28.2318 307.861 27.6887C308.22 27.1457 308.688 26.6833 309.236 26.3313C309.783 25.9792 310.398 25.7451 311.041 25.6439C311.684 25.5427 312.341 25.5766 312.97 25.7435C313.599 25.9104 314.187 26.2066 314.695 26.6132C315.203 27.0197 315.621 27.5278 315.922 28.105C316.224 28.6821 316.401 29.3157 316.443 29.9652C316.486 30.6148 316.393 31.266 316.169 31.8775C314.87 35.8825 309.743 36.691 308.614 40.099C308.594 40.1539 308.565 40.2045 308.526 40.2479C308.488 40.2913 308.441 40.3267 308.389 40.3521C308.336 40.3774 308.28 40.3922 308.222 40.3957C308.164 40.3991 308.106 40.3911 308.051 40.3721C307.996 40.353 307.945 40.3234 307.902 40.2848C307.858 40.2462 307.823 40.1995 307.798 40.1472C307.772 40.095 307.757 40.0382 307.754 39.9802C307.751 39.9222 307.759 39.8642 307.778 39.8093V39.8093Z" fill="#121212"/>
<path d="M307.19 43.3854C307 43.312 306.798 43.277 306.595 43.2825C306.392 43.2881 306.191 43.334 306.006 43.4176C305.821 43.5013 305.654 43.621 305.515 43.7697C305.377 43.9185 305.269 44.0934 305.199 44.2841C305.128 44.4749 305.096 44.6778 305.105 44.881C305.114 45.0841 305.163 45.2835 305.25 45.4675C305.336 45.6515 305.459 45.8164 305.61 45.9526C305.761 46.0888 305.937 46.1937 306.129 46.261C306.319 46.3344 306.521 46.3694 306.724 46.3639C306.928 46.3583 307.128 46.3124 307.313 46.2288C307.498 46.1451 307.665 46.0254 307.804 45.8767C307.943 45.7279 308.05 45.553 308.121 45.3623C308.191 45.1715 308.223 44.9686 308.214 44.7655C308.205 44.5623 308.156 44.3629 308.069 44.1789C307.983 43.995 307.86 43.83 307.709 43.6938C307.558 43.5576 307.382 43.4528 307.19 43.3854Z" fill="#121212"/>
<path d="M236.904 36.8906L225.59 35.3442C225.495 35.3314 225.408 35.2819 225.349 35.2062C225.29 35.1304 225.262 35.0345 225.273 34.9389C225.905 29.1311 225.807 29.4169 226.003 29.2622C226.199 29.1076 225.574 29.0919 237.552 30.7284C237.647 30.7416 237.733 30.7913 237.792 30.867C237.851 30.9426 237.878 31.0383 237.868 31.1336L237.28 36.5617C237.271 36.6539 237.227 36.7392 237.157 36.8002C237.087 36.8612 236.997 36.8935 236.904 36.8906V36.8906ZM226.044 34.6649L236.579 36.1076L237.092 31.4096L226.555 29.9689L226.044 34.6649Z" fill="#121212"/>
<path d="M235.055 1.11927C233.489 0.869534 231.886 1.00696 230.386 1.51955C228.886 2.03213 227.534 2.90428 226.448 4.0598C225.363 5.21532 224.577 6.61905 224.159 8.14836C223.741 9.67767 223.704 11.286 224.051 12.8329C226.324 19.7233 226.518 19.8799 226.334 26.9602V27.0111C226.341 27.0698 226.363 27.1259 226.397 27.1743C226.431 27.2228 226.477 27.2621 226.53 27.289C226.635 27.3399 237.566 28.855 237.717 28.8002L237.768 28.7767C237.846 28.7338 237.906 28.6644 237.938 28.581L237.954 28.5242C239.128 22.1545 239.661 21.6064 243.186 15.4618C243.666 14.4922 243.964 13.4425 244.065 12.3651C244.305 9.68992 243.502 7.02538 241.822 4.92924C240.143 2.8331 237.718 1.46785 235.055 1.11927V1.11927ZM242.546 15.0997C238.962 21.0016 238.435 21.8609 237.298 28.0427L232.553 27.3908L233.984 14.2639C236.662 14.6299 237.038 14.6945 237.325 14.6945C237.96 14.7015 238.575 14.4727 239.051 14.0526C239.527 13.6324 239.83 13.0507 239.901 12.4199C239.964 11.7167 239.753 11.0164 239.312 10.465C238.871 9.91366 238.234 9.55369 237.535 9.46017L236.489 9.31923C236.147 9.2658 235.797 9.28214 235.461 9.36727C235.125 9.45239 234.809 9.60454 234.533 9.8146C234.258 10.0247 234.027 10.2883 233.855 10.5896C233.684 10.891 233.575 11.2239 233.536 11.5684L233.34 13.4319L230.376 13.0267C230.002 12.9883 229.647 12.8409 229.356 12.6028C229.065 12.3648 228.85 12.0465 228.738 11.6875C228.626 11.3284 228.621 10.9444 228.725 10.5829C228.829 10.2215 229.037 9.89849 229.323 9.65396C229.525 9.49737 229.757 9.38336 230.005 9.31877C230.253 9.25418 230.511 9.24034 230.764 9.27811L233.126 9.59719C233.222 9.6007 233.315 9.56682 233.386 9.50274C233.457 9.43865 233.501 9.34939 233.507 9.2539C233.513 9.15842 233.482 9.06421 233.42 8.99125C233.359 8.9183 233.271 8.87234 233.175 8.86313L230.864 8.54797C230.513 8.49625 230.155 8.51625 229.812 8.60675C229.469 8.69726 229.148 8.85641 228.869 9.07454C228.47 9.40846 228.177 9.85217 228.028 10.3507C227.879 10.8492 227.879 11.3806 228.029 11.8789C228.179 12.3773 228.472 12.8207 228.871 13.1542C229.271 13.4876 229.759 13.6965 230.276 13.7549L233.262 14.164L231.831 27.293L227.086 26.6431C227.504 22.1918 226.816 17.7061 225.083 13.5846C224.572 12.1228 224.45 10.5532 224.729 9.03003C225.009 7.50687 225.68 6.0827 226.677 4.89763C227.674 3.71256 228.962 2.8074 230.415 2.27122C231.867 1.73504 233.435 1.5863 234.963 1.83963C236.435 2.019 237.846 2.53982 239.081 3.36058C240.317 4.18134 241.344 5.27937 242.081 6.56719C242.817 7.85502 243.243 9.29704 243.324 10.7784C243.404 12.2597 243.138 13.7395 242.546 15.0997V15.0997ZM234.062 13.5337L234.268 11.6526C234.294 11.4118 234.368 11.1789 234.487 10.9679C234.606 10.7569 234.766 10.5722 234.959 10.4252C235.753 9.80468 236.576 10.0729 237.447 10.1903C237.821 10.2286 238.175 10.3759 238.466 10.6138C238.757 10.8518 238.972 11.17 239.084 11.5289C239.196 11.8879 239.2 12.2718 239.096 12.633C238.992 12.9943 238.784 13.317 238.498 13.5611C238.296 13.7189 238.064 13.8337 237.816 13.8987C237.569 13.9636 237.31 13.9773 237.057 13.9389L234.062 13.5337Z" fill="#121212"/>
<path d="M187.094 47.9837L182.155 48.8547C181.019 49.0541 179.851 48.7952 178.906 48.1348C177.961 47.4743 177.316 46.4662 177.112 45.3313L176.233 40.3847C176.214 40.2909 176.159 40.2085 176.079 40.1549C176 40.1013 175.903 40.0807 175.809 40.0975C175.714 40.1143 175.63 40.1672 175.574 40.245C175.519 40.3227 175.495 40.4191 175.509 40.5138L176.38 45.4526C176.579 46.5882 176.32 47.7563 175.66 48.7014C174.999 49.6464 173.992 50.2914 172.857 50.4951L167.918 51.3662C167.825 51.3866 167.744 51.4419 167.691 51.5208C167.638 51.5996 167.618 51.6959 167.634 51.7893C167.651 51.8828 167.703 51.9664 167.779 52.0225C167.856 52.0786 167.951 52.103 168.045 52.0905L172.984 51.2194C173.546 51.1196 174.123 51.1316 174.681 51.2547C175.239 51.3778 175.767 51.6095 176.235 51.9367C176.703 52.2639 177.103 52.6801 177.41 53.1616C177.717 53.6431 177.927 54.1804 178.027 54.7429L178.898 59.6817C178.906 59.7293 178.924 59.7749 178.95 59.8158C178.976 59.8566 179.009 59.892 179.049 59.9198C179.089 59.9476 179.133 59.9673 179.181 59.9779C179.228 59.9884 179.277 59.9895 179.324 59.9812C179.372 59.9728 179.418 59.9551 179.458 59.9292C179.499 59.9032 179.535 59.8694 179.562 59.8298C179.59 59.7902 179.61 59.7455 179.621 59.6982C179.631 59.651 179.632 59.6021 179.624 59.5544L178.753 54.6157C178.553 53.4798 178.812 52.3111 179.473 51.3657C180.133 50.4202 181.141 49.7749 182.276 49.5712L187.215 48.7021C187.299 48.6751 187.371 48.6186 187.417 48.5429C187.463 48.4673 187.481 48.3776 187.466 48.2903C187.451 48.2029 187.405 48.1238 187.337 48.0675C187.269 48.0112 187.182 47.9814 187.094 47.9837V47.9837ZM178.062 52.8128C177.698 52.2319 177.221 51.7301 176.659 51.337C176.098 50.9439 175.463 50.6676 174.793 50.5245C175.374 50.1607 175.875 49.6838 176.268 49.1223C176.661 48.5607 176.937 47.9258 177.079 47.2555C177.442 47.8366 177.918 48.3389 178.479 48.7326C179.04 49.1264 179.674 49.4035 180.344 49.5477C179.765 49.9115 179.264 50.388 178.872 50.9488C178.48 51.5097 178.204 52.1435 178.062 52.8128V52.8128Z" fill="#121212"/>
<path d="M263.503 141.313C262.751 139.181 253.846 120.286 250.955 115.018C246.711 107.288 243.27 107.045 239.993 103.923C239.541 103.131 239.287 102.241 239.253 101.33C239.219 100.418 239.405 99.5123 239.797 98.6887C240.344 97.4402 241.043 96.2645 241.88 95.1887C246.21 90.5435 254.929 97.9977 254.995 98.0681C256.055 99.19 257.471 99.9096 259.002 100.104C259.233 100.124 259.465 100.093 259.683 100.013C259.9 99.9333 260.098 99.8066 260.261 99.642C260.424 99.4775 260.549 99.2791 260.627 99.0609C260.704 98.8427 260.733 98.61 260.711 98.3794C260.452 96.7403 259.597 95.2546 258.309 94.2079C260.705 94.5994 261.711 91.6789 258.219 88.447C261.009 89.23 262.152 86.2703 258.638 82.8682C258.274 82.5182 257.881 82.1994 257.464 81.9149C244.713 71.2211 236.957 79.5659 236.466 80.1257C233.996 82.4125 232.048 85.2046 230.754 88.312C228.928 88.741 227.201 89.5136 225.664 90.5885C223.545 91.5285 221.299 92.1518 218.999 92.4384C218.713 91.7865 217.785 89.9289 216.495 89.9719C216.3 89.9719 216.918 89.9367 190.069 92.1369C187.626 92.3498 185.305 93.2978 183.411 94.8559C181.518 96.414 180.141 98.5092 179.461 100.865C176.737 100.65 174.013 101.289 171.669 102.694C133.952 125.125 135.658 123.997 135.576 124.289C135.571 124.53 135.611 124.77 135.694 124.997C131.918 125.651 126.282 126.203 123.326 126.742C111.016 128.999 108.993 130.292 108.645 131.261C106.617 136.832 125.548 136.789 132.658 141.474C134.7 142.915 136.965 144.011 139.362 144.717C141.631 144.785 143.865 144.147 145.755 142.891C146.46 143.635 146.511 143.738 146.72 143.738C146.93 143.738 145.681 144.347 173.017 129.654L185.825 158.298L173.669 162.241C170.437 163.295 167.46 165.014 164.932 167.287C162.403 169.56 160.379 172.338 158.988 175.44C140.255 217.26 141.37 214.557 141.605 214.872C141.721 214.989 142.584 215.655 142.704 215.753C138.922 222.769 134.286 230.704 131.937 236.003C126.374 248.519 126.366 251.107 126.981 251.963C130.733 257.177 142.259 240.143 150.876 236.612C152.963 235.813 154.845 234.556 156.382 232.934C158.43 230.407 160.053 227.564 161.188 224.517C161.729 224.65 162.276 224.751 162.829 224.82C163.146 224.74 161.85 227.234 180.867 186.7C188.444 184.952 201.1 182.242 214.115 179.833C231.789 176.558 234.027 149.944 234.142 148.346L240.118 135.413L246.823 147.477C238.456 170.447 236.695 175.117 236.436 176.127C236.35 176.466 236.436 176.391 236.491 176.458C236.616 176.568 237.262 177.004 237.399 177.096C236.078 179.787 234.14 182.128 231.742 183.928C228.389 186.373 226.954 188.058 227.475 188.931C228.307 190.335 233.447 187.952 234.933 187.263C233.38 190.763 231.435 194.074 229.133 197.133C228.244 198.386 228.056 199.439 228.63 199.946C229.973 201.142 233.015 197.728 234.222 196.376C233.424 198.03 232.537 199.641 231.566 201.201C230.746 202.407 230.615 203.417 231.216 203.902C232.114 204.628 233.617 203.511 234.444 202.638C235.517 201.463 236.521 200.227 237.448 198.934C236.887 200.334 236.376 201.479 236.09 202.056C234.663 204.947 236.861 206.269 239.126 203.143C239.935 201.993 240.68 200.8 241.357 199.568C241.236 200.007 241.117 200.39 240.989 200.743C240.328 202.587 240.807 203.147 241.152 203.315C242.068 203.765 243.252 202.242 243.806 201.375C247.421 195.353 250.584 189.072 253.271 182.583C253.412 182.593 254.445 182.677 254.576 182.652C254.948 182.55 254.367 183.949 263.685 155.421C265.171 150.825 265.107 145.869 263.503 141.313V141.313ZM236.959 80.6817C237.155 80.5701 241.41 76.2381 244.221 78.2857C246.907 80.2432 244.906 85.4716 245.102 84.9001C244.699 86.0746 245.494 86.3819 246.719 86.2566C247.4 86.1881 248.066 86.1039 248.446 86.7107C249.074 87.7149 248.128 89.5863 245.719 89.2163C245.653 89.206 245.587 89.2128 245.525 89.2361C245.463 89.2595 245.408 89.2985 245.366 89.3494C244.388 90.5964 241.402 94.5623 241.213 94.8304C239.271 97.5279 237.619 100.617 238.999 103.639C236.617 103.341 234.308 102.619 232.181 101.507C232.787 101.122 233.297 100.603 233.672 99.99C234.048 99.3774 234.279 98.6874 234.348 97.9722C236.413 97.3165 240.465 94.8833 241.256 92.8358C241.33 92.6787 241.37 92.5079 241.374 92.3344C241.379 92.1608 241.347 91.9882 241.281 91.8276C240.6 90.4182 236.227 92.595 234.289 93.1137C233.31 93.376 232.374 93.5855 231.466 93.7421C230.992 92.932 230.771 91.9989 230.83 91.0622C231.48 90.2499 232.396 88.9325 231.511 88.4157C232.765 85.4844 234.621 82.8494 236.959 80.6817V80.6817ZM230.108 91.8942C230.142 92.5857 230.333 93.2604 230.666 93.8674C229.743 93.9983 228.815 94.0806 227.884 94.114C228.833 93.241 229.56 92.503 230.117 91.8942H230.108ZM226.036 91.2228C229.673 89.0578 230.951 88.9344 231.126 89.0519C231.126 89.0519 231.374 89.97 226.772 94.1414C225.903 94.1414 224.975 94.1062 224.008 94.0337C223.911 94.0265 223.815 94.0582 223.741 94.1219C223.667 94.1855 223.621 94.276 223.614 94.3734C223.606 94.4707 223.638 94.5669 223.702 94.6409C223.766 94.7149 223.856 94.7605 223.953 94.7678C227.486 95.0939 231.049 94.7762 234.469 93.8301C235.622 93.5228 240.159 91.6417 240.608 92.1545C240.643 92.2961 240.626 92.4458 240.559 92.5754C239.053 94.7634 236.862 96.389 234.332 97.197C232.667 97.6323 230.977 97.9637 229.272 98.1895C229.178 98.2091 229.096 98.2644 229.042 98.3437C228.988 98.423 228.968 98.5201 228.985 98.6144C229.002 98.7086 229.054 98.7926 229.132 98.8485C229.21 98.9044 229.306 98.9278 229.401 98.9138C230.38 98.7415 232.171 98.5047 233.59 98.1758C233.462 98.8163 233.19 99.4195 232.795 99.9402C232.401 100.461 231.893 100.886 231.312 101.183C230.333 101.742 230.151 101.648 226.696 102.054C226.601 102.063 226.514 102.109 226.453 102.181C226.392 102.253 226.36 102.347 226.366 102.441C226.371 102.536 226.413 102.625 226.483 102.689C226.552 102.754 226.644 102.789 226.739 102.788L229.732 102.439H229.767C229.799 102.438 229.83 102.434 229.861 102.427L229.898 102.416L230.204 102.381C230.675 103.545 228.499 104.925 227.126 105.235C226.931 105.28 224.752 105.571 224.582 105.571C224.488 105.573 224.399 105.611 224.332 105.676C224.265 105.742 224.225 105.831 224.222 105.924C224.218 106.018 224.25 106.11 224.312 106.18C224.373 106.251 224.459 106.296 224.552 106.305C224.82 106.317 226.706 106.031 227.218 105.988C227.835 106.456 227.023 108.089 225.402 108.378C224.924 108.392 215.969 108.574 214.332 108.607C212.8 103.755 212.732 98.5586 214.136 93.6677C215.734 93.6337 217.328 93.4806 218.903 93.2096C221.359 92.8552 223.76 92.1874 226.046 91.2228H226.036ZM201.877 132.696L206.001 112.595L216.662 111.749C217.552 111.616 218.365 110.77 219.011 109.287C220.622 109.253 223.425 109.173 224.781 109.13C219.618 118.22 215.856 128.038 213.624 138.252L201.877 132.696ZM195.566 119.374L203.159 122.772L201.321 131.739L195.566 119.374ZM190.141 92.871L214.796 90.8489C211.603 94.5427 211.627 107.891 215.037 111.138L188.73 113.221C188.639 113.231 188.555 113.273 188.493 113.341C188.432 113.409 188.398 113.498 188.398 113.589C188.398 113.681 188.432 113.769 188.493 113.837C188.555 113.905 188.639 113.948 188.73 113.957L204.782 114.813L203.298 122.032C184.044 113.419 190.233 116.185 186.45 114.497C184.153 113.474 182.262 111.716 181.076 109.5C179.889 107.283 179.473 104.735 179.895 102.257C180.316 99.7781 181.551 97.5104 183.404 95.811C185.256 94.1116 187.622 93.0773 190.128 92.871H190.141ZM213.968 179.11C212.935 179.306 180.771 185.553 180.299 186.175C180.18 186.371 180.886 184.885 162.531 224.047C155.117 222.582 148.179 219.311 142.332 214.524L159.655 175.742C161.006 172.733 162.971 170.041 165.423 167.836C167.875 165.632 170.762 163.965 173.896 162.942L205.02 152.853C205.106 152.826 205.179 152.768 205.225 152.692C205.271 152.615 205.288 152.524 205.272 152.436C205.256 152.347 205.208 152.268 205.137 152.213C205.067 152.157 204.979 152.129 204.889 152.134L184.308 153.091L173.663 129.304L175.983 128.057C176.069 128.011 176.133 127.932 176.161 127.838C176.189 127.745 176.178 127.644 176.132 127.558C176.085 127.472 176.007 127.408 175.913 127.38C175.819 127.352 175.718 127.363 175.633 127.409L146.789 142.912C141.692 137.865 138.081 131.514 136.349 124.553L172.058 103.328C174.235 102.023 176.759 101.417 179.291 101.59C178.705 104.298 179.069 107.126 180.32 109.598C181.572 112.071 183.636 114.038 186.166 115.169L194.54 118.915C201.354 133.548 201.037 133.009 201.239 133.205C201.434 133.327 199.902 132.583 233.385 148.407C233.208 150.662 230.848 175.986 213.97 179.11H213.968ZM247.533 147.268L243.475 139.961V128.039C243.475 127.956 243.446 127.875 243.394 127.81C243.341 127.746 243.268 127.7 243.187 127.682C243.105 127.665 243.02 127.675 242.945 127.711C242.87 127.748 242.81 127.809 242.775 127.885L233.619 147.704L214.317 138.58C216.56 128.22 220.39 118.269 225.67 109.077C227.628 108.656 228.606 106.775 227.996 105.749C229.352 105.258 231.065 104.058 231.016 102.643V102.594C231.008 102.454 230.981 102.316 230.934 102.185C231.123 102.112 231.309 102.029 231.49 101.936C233.957 103.308 236.675 104.169 239.482 104.465C242.886 107.664 246.198 107.875 250.317 115.376C253.232 120.689 262.089 139.506 262.817 141.562C264.366 145.968 264.423 150.761 262.98 155.204L254.246 181.918C248.118 181.642 242.199 179.612 237.192 176.069C248.191 145.839 247.663 147.497 247.535 147.268H247.533ZM243.18 200.986C242.252 202.44 241.579 202.712 241.473 202.661C241.42 202.636 241.24 202.221 241.68 200.997C242.088 199.854 242.749 197.116 242.773 196.918C243.331 195.82 243.787 194.862 244.063 194.244C244.102 194.155 244.104 194.054 244.069 193.964C244.034 193.873 243.965 193.8 243.876 193.76C243.788 193.721 243.687 193.717 243.596 193.752C243.505 193.786 243.432 193.854 243.391 193.942C242.663 195.577 238.051 205.1 236.505 204.168C236.309 204.055 236.211 203.468 236.746 202.383C237.624 200.513 238.399 198.596 239.069 196.642C240.064 195.209 240.899 193.939 241.318 193.265C241.365 193.183 241.379 193.085 241.356 192.993C241.333 192.901 241.275 192.822 241.195 192.771C241.114 192.72 241.018 192.703 240.925 192.722C240.832 192.741 240.75 192.795 240.696 192.874C238.659 196.123 236.385 199.217 233.892 202.131C232.786 203.286 231.903 203.528 231.658 203.331C231.492 203.196 231.478 202.61 232.155 201.614C233.638 199.182 234.966 196.659 236.133 194.06C236.869 193.118 237.411 192.355 237.679 191.971C237.707 191.931 237.726 191.887 237.736 191.839C237.747 191.792 237.747 191.743 237.739 191.695C237.73 191.648 237.712 191.602 237.686 191.562C237.659 191.521 237.625 191.486 237.585 191.458C237.545 191.431 237.501 191.411 237.453 191.401C237.406 191.391 237.357 191.39 237.309 191.399C237.262 191.408 237.216 191.426 237.176 191.452C237.135 191.478 237.1 191.512 237.072 191.552C235.369 194.011 233.415 196.285 231.241 198.339C229.996 199.468 229.258 199.537 229.098 199.396C228.084 198.494 233.475 194.199 236.765 184.496C236.781 184.45 236.787 184.401 236.784 184.353C236.781 184.305 236.768 184.258 236.747 184.214C236.725 184.171 236.696 184.132 236.659 184.101C236.623 184.069 236.581 184.044 236.535 184.029C236.489 184.013 236.441 184.007 236.393 184.01C236.345 184.013 236.297 184.026 236.254 184.047C236.211 184.068 236.172 184.098 236.14 184.134C236.108 184.171 236.084 184.213 236.068 184.259C235.831 184.958 235.581 185.629 235.322 186.277C235.286 186.282 235.251 186.292 235.219 186.308C229.738 188.916 228.201 188.743 228.088 188.555C227.994 188.399 228.411 187.254 232.155 184.523C234.626 182.673 236.627 180.268 237.998 177.503C242.359 180.303 247.325 182.023 252.484 182.518C249.836 188.892 246.726 195.064 243.18 200.986V200.986Z" fill="#121212"/>
<path d="M209.315 174.08C209.329 174.429 209.477 174.76 209.729 175.003C209.981 175.245 210.317 175.381 210.667 175.381C211.017 175.381 211.353 175.245 211.605 175.003C211.857 174.76 212.005 174.429 212.019 174.08C212.005 173.73 211.857 173.399 211.605 173.157C211.353 172.914 211.017 172.779 210.667 172.779C210.317 172.779 209.981 172.914 209.729 173.157C209.477 173.399 209.329 173.73 209.315 174.08V174.08Z" fill="#121212"/>
<path d="M221.884 149.916C221.897 150.266 222.045 150.597 222.297 150.839C222.55 151.082 222.886 151.218 223.236 151.218C223.585 151.218 223.922 151.082 224.174 150.839C224.426 150.597 224.574 150.266 224.587 149.916C224.574 149.567 224.426 149.236 224.174 148.993C223.922 148.751 223.585 148.615 223.236 148.615C222.886 148.615 222.55 148.751 222.297 148.993C222.045 149.236 221.897 149.567 221.884 149.916V149.916Z" fill="#121212"/>
<path d="M188.762 145.747C188.775 146.097 188.923 146.427 189.175 146.67C189.427 146.913 189.764 147.048 190.113 147.048C190.463 147.048 190.799 146.913 191.051 146.67C191.303 146.427 191.452 146.097 191.465 145.747C191.452 145.397 191.303 145.067 191.051 144.824C190.799 144.581 190.463 144.446 190.113 144.446C189.764 144.446 189.427 144.581 189.175 144.824C188.923 145.067 188.775 145.397 188.762 145.747V145.747Z" fill="#121212"/>
<path d="M190.985 122.672C190.998 123.021 191.146 123.352 191.398 123.595C191.65 123.837 191.987 123.973 192.336 123.973C192.686 123.973 193.022 123.837 193.274 123.595C193.527 123.352 193.675 123.021 193.688 122.672C193.675 122.322 193.527 121.991 193.274 121.749C193.022 121.506 192.686 121.371 192.336 121.371C191.987 121.371 191.65 121.506 191.398 121.749C191.146 121.991 190.998 122.322 190.985 122.672V122.672Z" fill="#121212"/>
<path d="M170.485 110.678C170.498 111.028 170.646 111.359 170.898 111.601C171.15 111.844 171.486 111.98 171.836 111.98C172.186 111.98 172.522 111.844 172.774 111.601C173.026 111.359 173.175 111.028 173.188 110.678C173.175 110.329 173.026 109.998 172.774 109.755C172.522 109.513 172.186 109.377 171.836 109.377C171.486 109.377 171.15 109.513 170.898 109.755C170.646 109.998 170.498 110.329 170.485 110.678V110.678Z" fill="#121212"/>
<path d="M140.873 125.293C140.873 125.651 141.015 125.995 141.268 126.248C141.521 126.501 141.865 126.644 142.223 126.644C142.581 126.644 142.925 126.501 143.178 126.248C143.432 125.995 143.574 125.651 143.574 125.293C143.574 124.935 143.432 124.591 143.178 124.338C142.925 124.085 142.581 123.942 142.223 123.942C141.865 123.942 141.521 124.085 141.268 124.338C141.015 124.591 140.873 124.935 140.873 125.293V125.293Z" fill="#121212"/>
<path d="M161.251 128.039C161.264 128.389 161.412 128.72 161.664 128.962C161.916 129.205 162.253 129.341 162.602 129.341C162.952 129.341 163.288 129.205 163.54 128.962C163.793 128.72 163.941 128.389 163.954 128.039C163.941 127.69 163.793 127.359 163.54 127.116C163.288 126.874 162.952 126.738 162.602 126.738C162.253 126.738 161.916 126.874 161.664 127.116C161.412 127.359 161.264 127.69 161.251 128.039V128.039Z" fill="#121212"/>
<path d="M172.287 186.753C172.3 187.102 172.449 187.433 172.701 187.676C172.953 187.918 173.289 188.054 173.639 188.054C173.989 188.054 174.325 187.918 174.577 187.676C174.829 187.433 174.977 187.102 174.99 186.753C174.977 186.403 174.829 186.072 174.577 185.83C174.325 185.587 173.989 185.451 173.639 185.451C173.289 185.451 172.953 185.587 172.701 185.83C172.449 186.072 172.3 186.403 172.287 186.753Z" fill="#121212"/>
<path d="M187.121 162.603C187.121 162.961 187.264 163.305 187.517 163.558C187.77 163.811 188.114 163.954 188.472 163.954C188.83 163.954 189.174 163.811 189.427 163.558C189.681 163.305 189.823 162.961 189.823 162.603C189.823 162.245 189.681 161.901 189.427 161.648C189.174 161.395 188.83 161.252 188.472 161.252C188.114 161.252 187.77 161.395 187.517 161.648C187.264 161.901 187.121 162.245 187.121 162.603Z" fill="#121212"/>
<path d="M148.361 204.574C148.374 204.923 148.522 205.254 148.774 205.497C149.026 205.739 149.362 205.875 149.712 205.875C150.062 205.875 150.398 205.739 150.65 205.497C150.902 205.254 151.051 204.923 151.064 204.574C151.051 204.224 150.902 203.893 150.65 203.651C150.398 203.408 150.062 203.272 149.712 203.272C149.362 203.272 149.026 203.408 148.774 203.651C148.522 203.893 148.374 204.224 148.361 204.574V204.574Z" fill="#121212"/>
<path d="M134.22 201.939L128.189 199.198L130.929 193.165C130.969 193.076 130.973 192.975 130.938 192.884C130.903 192.792 130.834 192.718 130.745 192.678C130.656 192.638 130.555 192.634 130.463 192.669C130.372 192.704 130.298 192.773 130.258 192.862L127.517 198.893L121.486 196.152C121.398 196.115 121.298 196.113 121.208 196.148C121.119 196.182 121.046 196.251 121.006 196.338C120.966 196.425 120.962 196.525 120.995 196.616C121.028 196.706 121.094 196.78 121.181 196.822L127.212 199.562L124.471 205.594C124.433 205.682 124.432 205.782 124.466 205.871C124.501 205.961 124.569 206.033 124.657 206.073C124.744 206.113 124.844 206.117 124.934 206.085C125.025 206.052 125.099 205.985 125.141 205.899L127.881 199.866C133.767 202.54 133.869 202.64 134.065 202.64C134.147 202.637 134.227 202.607 134.29 202.555C134.354 202.502 134.398 202.43 134.416 202.35C134.433 202.269 134.424 202.185 134.388 202.111C134.353 202.036 134.293 201.976 134.22 201.939V201.939Z" fill="#121212"/>
</svg>
