<svg width="32" height="32" viewBox="0 0 32 32" fill="none" xmlns="http://www.w3.org/2000/svg">
<path fill-rule="evenodd" clip-rule="evenodd" d="M15.9998 3.66669C9.18833 3.66669 3.6665 9.18851 3.6665 16C3.6665 22.8115 9.18833 28.3334 15.9998 28.3334C22.8113 28.3334 28.3332 22.8115 28.3332 16C28.3332 9.18851 22.8113 3.66669 15.9998 3.66669ZM1.6665 16C1.6665 8.08394 8.08376 1.66669 15.9998 1.66669C23.9159 1.66669 30.3332 8.08394 30.3332 16C30.3332 23.9161 23.9159 30.3334 15.9998 30.3334C8.08376 30.3334 1.6665 23.9161 1.6665 16Z" fill="#1994ED"/>
<path fill-rule="evenodd" clip-rule="evenodd" d="M9.66647 4C9.66647 3.44772 10.1142 3 10.6665 3H11.9998C12.3213 3 12.6233 3.15461 12.8112 3.4155C12.9991 3.67639 13.0502 4.01173 12.9483 4.31672C10.417 11.8978 10.417 20.1022 12.9483 27.6833C13.0502 27.9883 12.9991 28.3236 12.8112 28.5845C12.6233 28.8454 12.3213 29 11.9998 29H10.6665C10.1142 29 9.66647 28.5523 9.66647 28C9.66647 27.4574 10.0987 27.0157 10.6376 27.0004C8.52055 19.8215 8.52055 12.1785 10.6376 4.99959C10.0987 4.9843 9.66647 4.54262 9.66647 4Z" fill="#1994ED"/>
<path fill-rule="evenodd" clip-rule="evenodd" d="M19.6831 3.05151C20.2069 2.87659 20.7734 3.15946 20.9483 3.68331C23.6169 11.6755 23.6169 20.3245 20.9483 28.3167C20.7734 28.8406 20.2069 29.1235 19.6831 28.9485C19.1592 28.7736 18.8763 28.2072 19.0513 27.6833C21.5826 20.1022 21.5826 11.8978 19.0513 4.31674C18.8763 3.79289 19.1592 3.22642 19.6831 3.05151Z" fill="#1994ED"/>
<path fill-rule="evenodd" clip-rule="evenodd" d="M3.4155 19.1886C3.67639 19.0007 4.01173 18.9497 4.31672 19.0515C11.8978 21.5828 20.1022 21.5828 27.6833 19.0515C27.9883 18.9497 28.3236 19.0007 28.5845 19.1886C28.8454 19.3766 29 19.6785 29 20V21.3333C29 21.8856 28.5523 22.3333 28 22.3333C27.4574 22.3333 27.0157 21.9012 27.0004 21.3622C19.8215 23.4793 12.1785 23.4793 4.99959 21.3622C4.9843 21.9012 4.54262 22.3333 4 22.3333C3.44772 22.3333 3 21.8856 3 21.3333V20C3 19.6785 3.15461 19.3766 3.4155 19.1886Z" fill="#1994ED"/>
<path fill-rule="evenodd" clip-rule="evenodd" d="M27.6831 12.9486C20.102 10.4172 11.8976 10.4172 4.3165 12.9486C3.79264 13.1235 3.22618 12.8406 3.05126 12.3168C2.87635 11.7929 3.15921 11.2264 3.68307 11.0515C11.6753 8.38289 20.3243 8.38289 28.3165 11.0515C28.8404 11.2264 29.1232 11.7929 28.9483 12.3168C28.7734 12.8406 28.2069 13.1235 27.6831 12.9486Z" fill="#1994ED"/>
</svg>
