<svg width="32" height="32" viewBox="0 0 32 32" fill="none" xmlns="http://www.w3.org/2000/svg">
<path fill-rule="evenodd" clip-rule="evenodd" d="M7.37394 4.70713C6.69194 5.38912 6.3335 6.65954 6.3335 9.33335V22.6667C6.3335 25.3405 6.69194 26.6109 7.37394 27.2929C8.05593 27.9749 9.32635 28.3334 12.0002 28.3334H20.0002C22.674 28.3334 23.9444 27.9749 24.6264 27.2929C25.3084 26.6109 25.6668 25.3405 25.6668 22.6667V9.33335C25.6668 6.65954 25.3084 5.38912 24.6264 4.70713C23.9444 4.02513 22.674 3.66669 20.0002 3.66669H12.0002C9.32635 3.66669 8.05593 4.02513 7.37394 4.70713ZM5.95972 3.29291C7.27773 1.97491 9.34064 1.66669 12.0002 1.66669H20.0002C22.6597 1.66669 24.7226 1.97491 26.0406 3.29291C27.3586 4.61092 27.6668 6.67383 27.6668 9.33335V22.6667C27.6668 25.3262 27.3586 27.3891 26.0406 28.7071C24.7226 30.0251 22.6597 30.3334 20.0002 30.3334H12.0002C9.34064 30.3334 7.27773 30.0251 5.95972 28.7071C4.64172 27.3891 4.3335 25.3262 4.3335 22.6667V9.33335C4.3335 6.67383 4.64172 4.61092 5.95972 3.29291Z" fill="#1994ED"/>
<path fill-rule="evenodd" clip-rule="evenodd" d="M12.3335 7.33337C12.3335 6.78109 12.7812 6.33337 13.3335 6.33337H18.6668C19.2191 6.33337 19.6668 6.78109 19.6668 7.33337C19.6668 7.88566 19.2191 8.33337 18.6668 8.33337H13.3335C12.7812 8.33337 12.3335 7.88566 12.3335 7.33337Z" fill="#1994ED"/>
<path fill-rule="evenodd" clip-rule="evenodd" d="M16.0003 22.3334C15.4112 22.3334 14.9336 22.8109 14.9336 23.4C14.9336 23.9891 15.4112 24.4667 16.0003 24.4667C16.5894 24.4667 17.0669 23.9891 17.0669 23.4C17.0669 22.8109 16.5894 22.3334 16.0003 22.3334ZM12.9336 23.4C12.9336 21.7064 14.3066 20.3334 16.0003 20.3334C17.6939 20.3334 19.0669 21.7064 19.0669 23.4C19.0669 25.0937 17.6939 26.4667 16.0003 26.4667C14.3066 26.4667 12.9336 25.0937 12.9336 23.4Z" fill="#1994ED"/>
</svg>
