<svg width="80" height="80" viewBox="0 0 80 80" fill="none" xmlns="http://www.w3.org/2000/svg">
<path d="M40 57.9167C37.0167 57.9167 34.5834 55.4833 34.5834 52.5V51.25H27.5C26.2667 51.25 25.1167 50.7667 24.25 49.8833C23.4 49.05 22.9167 47.9 22.9167 46.6667C22.9167 44.3333 24.7334 42.3333 27.0667 42.1C27.15 42.0833 27.3167 42.0833 27.5 42.0833H52.5C52.6834 42.0833 52.85 42.0833 53.0167 42.1167C54 42.2 54.9834 42.6667 55.75 43.45C56.7 44.3667 57.1834 45.7 57.0667 47.0667C56.8667 49.4167 54.7834 51.25 52.3167 51.25H45.4167V52.5C45.4167 55.4833 42.9834 57.9167 40 57.9167ZM27.5 44.5833C27.4667 44.5833 27.3334 44.5833 27.3 44.6C26.25 44.7 25.4167 45.6167 25.4167 46.6667C25.4167 47.2167 25.6334 47.7333 26.0167 48.1167C26.4167 48.5333 26.9334 48.75 27.5 48.75H35.8334C36.5167 48.75 37.0834 49.3167 37.0834 50V52.5C37.0834 54.1 38.4 55.4167 40 55.4167C41.6 55.4167 42.9167 54.1 42.9167 52.5V50C42.9167 49.3167 43.4834 48.75 44.1667 48.75H52.3167C53.4667 48.75 54.4834 47.9 54.5834 46.85C54.6334 46.2167 54.4167 45.6333 53.9834 45.2C53.6167 44.8333 53.1834 44.6167 52.7167 44.5833L52.5 44.5667H27.5V44.5833Z" fill="#0C6BDA"/>
<path d="M52.8167 44.6C52.75 44.6 52.6833 44.6 52.6166 44.5833H27.5C27.15 44.65 26.7333 44.55 26.4667 44.3167C26.1833 44.1 25.9667 43.7667 25.95 43.4167L25.1333 28.9C24.9667 27.2 25.5333 25.45 26.7167 24.1333C27.9 22.8333 29.5833 22.0833 31.35 22.0833H48.65C50.4167 22.0833 52.1 22.8333 53.2833 24.15C54.45 25.45 55.0333 27.2 54.8666 28.9333L54.0667 43.4167C54.05 43.7667 53.8833 44.1 53.6 44.3167C53.3833 44.5 53.1 44.6 52.8167 44.6ZM28.3667 42.0833H51.6333L52.3666 28.7667C52.3666 28.75 52.3666 28.7333 52.3666 28.7C52.4666 27.6333 52.1333 26.6 51.4167 25.8167C50.7 25.0333 49.7 24.5833 48.6333 24.5833H31.35C30.3 24.5833 29.2833 25.0333 28.5667 25.8167C27.85 26.6167 27.5167 27.6333 27.6333 28.7L28.3667 42.0833Z" fill="#0C6BDA"/>
<path d="M33.3167 32.9167C32.6333 32.9167 32.0667 32.35 32.0667 31.6667V23.3333C32.0667 22.65 32.6333 22.0833 33.3167 22.0833C34 22.0833 34.5667 22.65 34.5667 23.3333V31.6667C34.5667 32.35 34 32.9167 33.3167 32.9167Z" fill="#0C6BDA"/>
<path d="M40 27.9167C39.3167 27.9167 38.75 27.35 38.75 26.6667V23.3333C38.75 22.65 39.3167 22.0833 40 22.0833C40.6833 22.0833 41.25 22.65 41.25 23.3333V26.6667C41.25 27.35 40.6833 27.9167 40 27.9167Z" fill="#0C6BDA"/>
<rect x="0.5" y="0.5" width="79" height="79" rx="39.5" stroke="#C2C2C2"/>
</svg>
