<svg width="67" height="52" viewBox="0 0 67 52" fill="none" xmlns="http://www.w3.org/2000/svg">
<path d="M0 37.1011C0 25.9026 0.624373 17.8689 1.87312 13C3.21792 8.03371 5.8595 4.62547 9.79785 2.77528C13.8323 0.925095 20.4122 0 29.5376 0V17.0899C24.6387 17.0899 21.4208 17.1873 19.8839 17.382C18.347 17.5768 17.3384 18.161 16.8581 19.1348C16.3778 20.1086 16.1376 21.9588 16.1376 24.6854H29.5376V52H0V37.1011ZM37.4624 37.1011C37.4624 25.9026 38.0867 17.8689 39.3355 13C40.6803 8.03371 43.3219 4.62547 47.2602 2.77528C51.2946 0.925095 57.8746 0 67 0V17.0899C62.1011 17.0899 58.8832 17.1873 57.3462 17.382C55.8093 17.5768 54.8007 18.161 54.3204 19.1348C53.8401 20.1086 53.6 21.9588 53.6 24.6854H67V52H37.4624V37.1011Z" fill="#1994ED"/>
</svg>
