<svg width="32" height="32" viewBox="0 0 32 32" fill="none" xmlns="http://www.w3.org/2000/svg">
<path fill-rule="evenodd" clip-rule="evenodd" d="M4.95857 11.6655C4.11286 12.5112 3.62646 13.932 3.62646 16.3334V22.3334C3.62646 24.7347 4.11286 26.1556 4.95857 27.0013C5.80428 27.847 7.22509 28.3334 9.62646 28.3334H15.6265C18.0278 28.3334 19.4486 27.847 20.2944 27.0013C21.1401 26.1556 21.6265 24.7347 21.6265 22.3334V16.3334C21.6265 13.932 21.1401 12.5112 20.2944 11.6655C19.4486 10.8198 18.0278 10.3334 15.6265 10.3334H9.62646C7.22509 10.3334 5.80428 10.8198 4.95857 11.6655ZM3.54436 10.2513C4.94865 8.84698 7.02783 8.33337 9.62646 8.33337H15.6265C18.2251 8.33337 20.3043 8.84698 21.7086 10.2513C23.1129 11.6556 23.6265 13.7347 23.6265 16.3334V22.3334C23.6265 24.932 23.1129 27.0112 21.7086 28.4155C20.3043 29.8198 18.2251 30.3334 15.6265 30.3334H9.62646C7.02783 30.3334 4.94865 29.8198 3.54436 28.4155C2.14007 27.0112 1.62646 24.932 1.62646 22.3334V16.3334C1.62646 13.7347 2.14007 11.6556 3.54436 10.2513Z" fill="#1994ED"/>
<path fill-rule="evenodd" clip-rule="evenodd" d="M15.8556 8.33471C18.3475 8.3645 20.3458 8.88847 21.7086 10.2512C23.0714 11.614 23.5954 13.6124 23.6252 16.1042C26.3204 15.378 28.2932 12.9236 28.2932 10C28.2932 9.71774 28.2704 9.44215 28.228 9.19803C28.2255 9.18381 28.2233 9.16955 28.2215 9.15524C27.8188 6.04871 25.1723 3.66669 21.9598 3.66669C19.0363 3.66669 16.5819 5.63944 15.8556 8.33471ZM13.6704 9.24474C14.0493 4.98653 17.6109 1.66669 21.9598 1.66669C26.1801 1.66669 29.6623 4.79388 30.2021 8.87704C30.2638 9.23985 30.2932 9.62316 30.2932 10C30.2932 14.349 26.9733 17.9106 22.7151 18.2894C22.4356 18.3143 22.1585 18.2206 21.9515 18.0311C21.7444 17.8417 21.6265 17.574 21.6265 17.2934V16.3334C21.6265 13.932 21.1401 12.5112 20.2944 11.6655C19.4487 10.8198 18.0279 10.3334 15.6265 10.3334H14.6665C14.3859 10.3334 14.1182 10.2154 13.9287 10.0084C13.7393 9.80137 13.6456 9.52426 13.6704 9.24474Z" fill="#1994ED"/>
</svg>
