<svg width="80" height="80" viewBox="0 0 80 80" fill="none" xmlns="http://www.w3.org/2000/svg">
<path d="M41.75 52.3667C40.85 52.3667 39.9 52.2833 38.8667 52.1167L31.05 50.8833C28.5833 50.5 26.6833 49.8167 25.2667 48.8167C21.6167 46.2833 21.8333 41.9333 22.3 38.8833L23.5333 31.0667C24.6667 23.9 28.3667 21.2167 35.5333 22.3333L43.35 23.5667C47.0333 24.15 51.9833 25.6333 52.3 31.85C52.3667 32.9167 52.3 34.1333 52.0667 35.5667L50.85 43.3833C49.8833 49.5 47.0333 52.3667 41.75 52.3667ZM32.55 24.5833C28.5833 24.5833 26.7833 26.6 26 31.4667L24.7667 39.2833C24 44.2 25.4 45.8667 26.7 46.7833C27.8 47.5667 29.35 48.1 31.4333 48.4167L39.25 49.65C45.0667 50.5667 47.4667 48.8167 48.3833 42.9833L49.6 35.1667C49.8 33.9167 49.8667 32.8667 49.8 31.9833V31.9667C49.6167 28.4667 47.6333 26.75 42.95 26.0167L35.15 24.8C34.1833 24.65 33.3333 24.5833 32.55 24.5833Z" fill="#0C6BDA"/>
<path d="M44.4667 57.9167C43.05 57.9167 41.45 57.6167 39.6 57L32.0833 54.5C27.8 53.0833 25.4833 51.05 24.7833 48.0833C24.6667 47.5833 24.8667 47.05 25.3 46.7667C25.7333 46.4833 26.3 46.4833 26.7167 46.7833C27.8167 47.5667 29.35 48.1 31.4333 48.4167L39.25 49.65C45.0667 50.5667 47.4667 48.8167 48.3833 42.9833L49.6 35.1667C49.8 33.9167 49.8667 32.8667 49.8 31.9833C49.7833 31.55 50 31.1167 50.3833 30.8667C50.7667 30.6167 51.25 30.6 51.65 30.8167C56.1167 33.2 57.3 37.0167 55.3667 42.85L52.8667 50.3667C51.6833 53.9 50.1333 56.0667 47.9667 57.15C46.9167 57.6667 45.7667 57.9167 44.4667 57.9167ZM29.55 50.6C30.35 51.1333 31.4167 51.65 32.8667 52.1333L40.3833 54.6333C43.25 55.5833 45.3 55.6667 46.8333 54.9167C48.3667 54.15 49.5333 52.45 50.4833 49.5833L52.9833 42.0667C54.35 37.9333 53.8167 35.7333 52.2333 34.25C52.2 34.6667 52.1333 35.1 52.0667 35.5667L50.85 43.3833C49.7167 50.55 46.0167 53.2333 38.85 52.1333L31.0333 50.9C30.5167 50.8 30.0167 50.7 29.55 50.6Z" fill="#0C6BDA"/>
<path d="M33.7333 36.2C31.45 36.2 29.5833 34.3333 29.5833 32.05C29.5833 29.7667 31.45 27.9 33.7333 27.9C36.0166 27.9 37.8833 29.7667 37.8833 32.05C37.8833 34.3333 36.0166 36.2 33.7333 36.2ZM33.7333 30.4167C32.8333 30.4167 32.0833 31.15 32.0833 32.0667C32.0833 32.9833 32.8166 33.7167 33.7333 33.7167C34.6333 33.7167 35.3833 32.9833 35.3833 32.0667C35.3833 31.15 34.6333 30.4167 33.7333 30.4167Z" fill="#0C6BDA"/>
<rect x="0.5" y="0.5" width="79" height="79" rx="39.5" stroke="#C2C2C2"/>
</svg>
