<svg width="80" height="80" viewBox="0 0 80 80" fill="none" xmlns="http://www.w3.org/2000/svg">
<path d="M50.8333 41.25C50.15 41.25 49.5833 40.6833 49.5833 40C49.5833 34.7167 45.2833 30.4167 40 30.4167C34.7167 30.4167 30.4167 34.7167 30.4167 40C30.4167 40.6833 29.85 41.25 29.1667 41.25C28.4833 41.25 27.9167 40.6833 27.9167 40C27.9167 33.3333 33.3333 27.9167 40 27.9167C46.6667 27.9167 52.0833 33.3333 52.0833 40C52.0833 40.6833 51.5167 41.25 50.8333 41.25Z" fill="#0C6BDA"/>
<path d="M56.6667 41.6667H56.5333C55.6166 41.6667 54.8666 40.9167 54.8666 40C54.8666 39.0833 55.6166 38.3333 56.5333 38.3333C57.45 38.3333 58.2667 39.0833 58.2667 40C58.2667 40.9167 57.5833 41.6667 56.6667 41.6667ZM23.4667 41.6667H23.3333C22.4167 41.6667 21.6667 40.9167 21.6667 40C21.6667 39.0833 22.4167 38.3333 23.3333 38.3333C24.25 38.3333 25.0666 39.0833 25.0666 40C25.0666 40.9167 24.3834 41.6667 23.4667 41.6667ZM51.6833 29.9833C51.25 29.9833 50.8333 29.8167 50.5 29.5C49.85 28.85 49.85 27.8 50.5 27.15L50.7166 26.9333C51.3666 26.2833 52.4167 26.2833 53.0667 26.9333C53.7167 27.5833 53.7167 28.6333 53.0667 29.2833L52.85 29.5C52.5334 29.8167 52.1167 29.9833 51.6833 29.9833ZM28.3166 29.9833C27.8833 29.9833 27.4667 29.8167 27.1334 29.5L26.9167 29.2833C26.2667 28.6333 26.2667 27.5833 26.9167 26.9333C27.5667 26.2833 28.6167 26.2833 29.2667 26.9333L29.4833 27.15C30.1333 27.8 30.1333 28.85 29.4833 29.5C29.1667 29.8167 28.7333 29.9833 28.3166 29.9833ZM40 25.0667C39.0833 25.0667 38.3333 24.3833 38.3333 23.4666V23.3333C38.3333 22.4167 39.0833 21.6667 40 21.6667C40.9167 21.6667 41.6667 22.4167 41.6667 23.3333C41.6667 24.25 40.9167 25.0667 40 25.0667Z" fill="#0C6BDA"/>
<path d="M53.3333 46.25H26.6667C25.9833 46.25 25.4167 45.6833 25.4167 45C25.4167 44.3167 25.9833 43.75 26.6667 43.75H53.3333C54.0167 43.75 54.5833 44.3167 54.5833 45C54.5833 45.6833 54.0167 46.25 53.3333 46.25Z" fill="#0C6BDA"/>
<path d="M50 51.25H30C29.3167 51.25 28.75 50.6833 28.75 50C28.75 49.3167 29.3167 48.75 30 48.75H50C50.6833 48.75 51.25 49.3167 51.25 50C51.25 50.6833 50.6833 51.25 50 51.25Z" fill="#0C6BDA"/>
<path d="M45 56.25H35C34.3167 56.25 33.75 55.6833 33.75 55C33.75 54.3167 34.3167 53.75 35 53.75H45C45.6833 53.75 46.25 54.3167 46.25 55C46.25 55.6833 45.6833 56.25 45 56.25Z" fill="#0C6BDA"/>
<rect x="0.5" y="0.5" width="79" height="79" rx="39.5" stroke="#C2C2C2"/>
</svg>
